<?xml version="1.0" standalone="no"?>
<!DOCTYPE svg PUBLIC "-//W3C//DTD SVG 20010904//EN"
 "http://www.w3.org/TR/2001/REC-SVG-20010904/DTD/svg10.dtd">
<svg version="1.0" xmlns="http://www.w3.org/2000/svg"
 width="1511.000000pt" height="1511.000000pt" viewBox="0 0 1511.000000 1511.000000"
 preserveAspectRatio="xMidYMid meet">

<g transform="translate(0.000000,1511.000000) scale(0.100000,-0.100000)"
fill="#000000" stroke="none">
<path d="M7090 13985 l0 -65 30 0 30 0 0 -155 0 -155 -25 0 c-25 0 -25 -1 -25
-83 0 -46 -3 -118 -6 -160 l-7 -77 -153 0 -154 0 0 -214 0 -214 -42 -16 c-24
-8 -88 -31 -143 -51 -230 -83 -541 -261 -755 -431 -124 -98 -341 -322 -444
-454 -306 -398 -481 -824 -552 -1340 -26 -189 -24 -519 5 -719 42 -295 124
-560 256 -827 146 -295 319 -530 571 -774 859 -830 2190 -994 3236 -398 717
409 1216 1123 1348 1928 65 398 45 787 -61 1175 -186 685 -623 1260 -1238
1629 -181 109 -281 155 -496 231 l-120 43 -3 216 -2 216 -155 0 -155 0 0 380
0 380 -470 0 -470 0 0 -65z m820 -1290 c518 -78 1001 -313 1364 -665 420 -406
659 -874 752 -1470 23 -150 23 -508 0 -655 -40 -258 -91 -437 -185 -661 -249
-587 -754 -1078 -1356 -1319 -171 -69 -296 -104 -485 -139 -799 -145 -1613
110 -2193 687 -308 306 -530 684 -642 1093 -189 686 -77 1430 302 2009 102
155 178 250 308 384 215 222 415 366 700 506 267 132 521 206 815 240 161 18
465 13 620 -10z"/>
<path d="M6140 10683 c-89 -9 -265 -48 -361 -79 -180 -58 -415 -190 -540 -302
l-50 -44 6 -92 c47 -706 353 -1307 885 -1735 329 -265 694 -425 1135 -498 153
-25 532 -25 692 0 484 76 908 281 1258 607 355 331 589 731 698 1195 45 192
81 533 55 522 -7 -3 -58 -26 -113 -50 -155 -69 -288 -116 -430 -153 -228 -58
-299 -67 -540 -68 -188 -1 -238 2 -340 21 -275 52 -413 103 -775 286 -454 230
-827 351 -1189 387 -97 9 -314 11 -391 3z"/>
<path d="M4338 7382 c-21 -39 -64 -61 -141 -73 -115 -19 -345 -175 -503 -342
-206 -218 -429 -585 -554 -912 -67 -176 -72 -186 -101 -201 -16 -8 -30 -14
-33 -14 -3 0 17 54 45 119 27 66 49 127 49 135 0 8 7 22 16 30 8 9 14 24 12
34 -3 13 -7 10 -19 -13 -11 -23 -23 -31 -49 -35 -40 -6 -62 -39 -53 -80 12
-64 -55 -225 -79 -188 -15 25 -8 103 18 187 14 47 34 126 44 176 10 49 26 124
35 165 23 105 17 267 -13 333 -35 79 -77 123 -150 159 -59 29 -76 33 -147 33
-72 -1 -88 -4 -160 -39 -63 -31 -98 -57 -166 -125 -75 -75 -93 -100 -142 -201
-31 -63 -69 -160 -84 -215 -25 -90 -27 -116 -28 -270 0 -163 1 -172 26 -226
39 -83 90 -133 181 -179 44 -22 85 -40 92 -40 6 0 28 -5 49 -11 34 -9 37 -13
37 -44 0 -28 -4 -35 -20 -35 -43 0 -149 44 -202 83 -110 83 -171 179 -211 333
-21 81 -42 117 -31 52 27 -148 87 -286 161 -368 57 -63 141 -106 225 -116 52
-6 58 -9 58 -30 0 -77 -48 -368 -99 -605 -119 -548 -161 -777 -206 -1124 -43
-319 -79 -641 -86 -755 -4 -61 10 -148 29 -185 9 -18 18 -69 21 -125 l6 -95
25 42 c14 24 28 43 33 43 23 0 -16 -103 -51 -136 -19 -18 -26 -39 -23 -77 1
-17 3 -17 33 -1 75 39 219 203 266 304 24 51 42 172 41 263 -1 80 -11 112 -32
111 -20 -2 -21 5 -7 40 12 31 27 33 56 5 l22 -21 7 69 c4 37 20 154 36 258 16
105 34 219 39 255 6 36 21 157 35 270 14 112 28 206 30 208 6 6 -14 42 -23 42
-5 0 -14 -42 -21 -92 -7 -51 -19 -124 -27 -162 -8 -38 -15 -97 -15 -132 -1
-46 -5 -64 -15 -64 -34 0 -33 37 9 353 31 231 40 275 62 315 24 42 26 55 23
140 -3 90 -2 95 23 116 22 19 27 33 33 105 3 45 14 108 22 139 21 72 38 161
57 282 11 68 24 110 46 150 30 54 31 54 31 23 0 -18 5 -33 10 -33 6 0 10 -13
10 -30 0 -16 -4 -30 -10 -30 -5 0 -10 -5 -10 -11 0 -6 -6 -17 -14 -24 -25 -26
-75 -183 -86 -272 -6 -48 -19 -133 -30 -188 -20 -101 -62 -426 -56 -433 2 -2
9 19 15 45 7 26 20 59 30 72 18 23 18 23 23 -61 3 -47 10 -94 16 -103 9 -17
11 -16 27 8 9 15 15 36 12 47 -3 11 -4 20 -4 20 1 0 76 25 166 55 180 60 209
75 263 146 21 26 47 53 59 60 20 10 21 9 15 -12 -5 -13 -10 -36 -13 -51 l-5
-27 77 42 c125 68 471 313 581 411 66 58 151 169 135 174 -6 2 -51 -34 -99
-80 -104 -99 -196 -178 -207 -178 -4 0 51 62 121 138 71 75 151 162 178 192
26 30 58 66 71 80 12 14 39 50 60 80 52 76 75 100 110 115 43 17 85 70 85 106
0 43 22 80 70 114 63 46 78 64 96 119 22 68 59 141 99 196 18 25 39 59 48 75
41 81 194 574 204 657 7 59 -12 159 -40 214 -25 47 -184 202 -236 229 -70 36
-144 55 -213 55 -54 0 -68 3 -68 15 0 16 39 20 150 16 l55 -2 -30 18 c-19 10
-60 18 -110 21 l-80 4 -17 -30z m162 -371 c79 -38 102 -82 97 -181 -7 -108
-47 -233 -133 -410 -190 -391 -332 -593 -631 -901 -236 -242 -455 -417 -638
-510 -55 -28 -106 -56 -114 -62 -22 -19 -7 113 23 201 14 40 28 101 31 135 l6
62 -24 -39 c-14 -21 -32 -66 -41 -100 -20 -79 -71 -218 -77 -211 -10 10 -46
-40 -64 -90 -27 -71 -29 -34 -6 80 16 75 28 108 55 143 50 70 62 98 81 192 29
149 56 220 95 252 19 17 121 66 225 109 230 97 265 118 265 166 0 19 4 32 9
29 10 -6 97 122 88 130 -8 9 -120 -52 -221 -120 -58 -39 -121 -72 -165 -86
-40 -12 -73 -21 -75 -19 -2 2 -7 14 -10 26 -6 19 -2 22 49 33 30 6 87 27 125
46 61 31 69 38 60 54 -5 10 -7 26 -4 34 8 22 -45 12 -110 -20 -27 -14 -51 -22
-54 -20 -11 12 63 145 108 192 28 29 50 58 50 63 0 6 0 13 0 16 0 13 58 117
103 185 143 213 231 311 402 448 137 109 219 160 307 192 64 24 110 19 188
-19z m-1776 -453 c4 -31 -4 -90 -29 -208 -20 -91 -42 -214 -51 -275 -14 -105
-48 -266 -65 -311 -6 -17 -14 -20 -34 -17 -23 5 -24 7 -9 18 15 11 6 20 -74
74 l-92 61 5 150 c3 100 9 160 19 185 8 19 52 97 98 171 73 121 88 140 133
165 72 42 91 39 99 -13z m300 -787 c3 -5 -4 -11 -17 -15 -35 -9 -40 -7 -27 9
14 17 36 20 44 6z m-89 -266 l-14 -40 -1 32 c0 39 10 67 21 56 5 -5 2 -26 -6
-48z m-19 -61 c-3 -9 -6 -21 -6 -27 0 -8 -3 -8 -11 0 -13 13 -5 43 12 43 6 0
8 -7 5 -16z m78 -518 c-6 -16 -8 -17 -16 -2 -11 19 0 42 13 29 6 -6 7 -18 3
-27z m592 -101 c-17 -26 -41 -30 -41 -6 0 11 46 41 54 35 2 -2 -4 -15 -13 -29z
m-1015 -1087 c2 -49 -3 -85 -20 -123 l-17 -40 -7 68 c-5 54 -3 74 9 93 20 30
34 31 35 2z m-31 -202 c0 -14 -4 -28 -10 -31 -6 -4 -10 7 -10 24 0 17 5 31 10
31 6 0 10 -11 10 -24z m-17 -106 c-7 -28 -13 -25 -13 6 0 14 4 23 9 20 5 -3 7
-15 4 -26z m-243 -611 c0 -17 -4 -28 -10 -24 -5 3 -10 17 -10 31 0 13 5 24 10
24 6 0 10 -14 10 -31z m20 -134 c0 -18 -5 -25 -20 -25 -20 0 -28 28 -13 43 15
16 33 6 33 -18z"/>
<path d="M3160 5485 c0 -8 4 -15 10 -15 5 0 7 7 4 15 -4 8 -8 15 -10 15 -2 0
-4 -7 -4 -15z"/>
<path d="M4751 7303 c-14 -31 -15 -30 32 -38 32 -6 37 -5 37 11 0 11 -13 26
-29 35 -28 16 -29 16 -40 -8z"/>
<path d="M7930 7296 c-25 -7 -62 -21 -82 -32 -48 -25 -242 -214 -318 -310 -54
-67 -190 -260 -215 -303 -5 -9 -24 -35 -41 -56 -17 -22 -44 -65 -59 -95 -15
-30 -88 -164 -161 -297 -167 -301 -212 -410 -385 -923 -88 -261 -150 -488
-193 -712 l-35 -177 -61 -95 c-41 -64 -60 -103 -58 -118 4 -22 7 -20 46 21 23
24 42 38 42 30 0 -8 -12 -48 -27 -89 -20 -54 -39 -87 -70 -118 -24 -24 -48
-40 -53 -37 -5 3 -36 -30 -68 -73 -33 -43 -79 -98 -101 -122 -23 -25 -61 -71
-84 -104 -61 -86 -136 -176 -147 -176 -25 0 32 131 137 315 44 77 99 176 123
220 24 44 86 152 138 240 122 205 137 238 124 275 -15 42 20 164 58 205 l20
22 -55 37 c-45 31 -55 44 -55 67 0 15 -5 40 -10 55 l-11 27 -92 -5 c-114 -6
-137 -17 -137 -63 l0 -35 -52 0 c-50 1 -52 2 -33 16 11 8 27 19 35 24 37 21
-9 22 -98 2 -122 -28 -157 -29 -147 -4 41 97 88 341 82 424 -9 133 -93 256
-205 299 -110 41 -217 11 -348 -99 -150 -126 -224 -250 -250 -422 -22 -150 -6
-256 58 -384 44 -88 89 -139 152 -172 49 -26 55 -31 49 -54 -13 -55 -24 -72
-55 -85 -53 -21 -83 -50 -102 -97 -10 -24 -25 -60 -34 -81 -12 -30 -20 -37
-35 -33 -32 8 -46 -4 -96 -78 -27 -39 -86 -118 -132 -175 -134 -166 -182 -231
-176 -238 10 -10 62 40 118 114 30 40 57 72 61 73 4 0 14 13 23 30 14 28 61
67 69 59 8 -8 -104 -183 -142 -223 -21 -23 -56 -63 -77 -89 -22 -27 -62 -64
-91 -82 -28 -18 -65 -53 -81 -77 -16 -23 -42 -49 -58 -57 -17 -8 -62 -36 -101
-62 -90 -60 -254 -155 -314 -182 -35 -15 -64 -19 -134 -18 -111 3 -133 14
-191 101 -77 117 -79 124 -83 255 -4 119 -3 122 33 215 20 52 40 99 44 103 5
5 49 -1 99 -13 119 -28 141 -23 63 14 -33 16 -61 34 -61 39 0 12 113 2 210
-18 89 -19 205 -19 256 -1 22 7 68 14 103 14 35 1 67 5 70 10 12 17 86 62 103
62 27 0 164 136 217 216 83 124 139 306 127 414 -8 73 -48 151 -98 194 l-40
35 -33 -35 c-22 -23 -42 -34 -61 -34 -45 -1 -171 -34 -257 -68 -62 -24 -88
-30 -125 -26 -46 6 -48 5 -141 -71 -55 -45 -127 -93 -175 -116 -64 -30 -105
-61 -191 -140 -169 -157 -157 -147 -150 -124 6 19 6 19 -8 3 -16 -21 -38 -23
-54 -7 -9 9 -14 5 -19 -15 -3 -15 -15 -28 -28 -32 -18 -4 -21 -11 -18 -48 4
-46 -36 -155 -104 -285 -46 -89 -73 -193 -81 -313 l-6 -97 81 -163 c74 -153
85 -169 150 -229 161 -149 315 -188 527 -134 174 44 306 117 562 310 197 148
253 189 303 218 80 46 190 178 255 307 15 30 53 89 85 130 109 144 163 233
187 308 13 40 23 80 23 90 0 9 14 54 32 99 l33 81 45 6 c25 3 78 9 118 12 69
7 72 6 72 -14 0 -31 -25 -89 -101 -234 -96 -184 -58 -164 46 24 27 49 50 86
52 84 7 -6 -210 -481 -233 -512 -13 -17 -24 -36 -24 -43 0 -6 -19 -41 -41 -77
-38 -60 -44 -77 -71 -232 -43 -251 -45 -272 -19 -326 29 -59 111 -133 157
-142 86 -16 197 34 310 138 60 57 104 114 203 264 69 105 134 206 144 224 10
18 20 30 23 27 3 -3 1 -52 -5 -109 -29 -265 -68 -1239 -63 -1566 l3 -203 28
-10 c26 -9 31 -19 56 -112 15 -56 28 -106 29 -111 1 -5 22 36 46 90 58 131 64
137 81 82 11 -33 22 -47 49 -60 48 -23 50 -23 50 16 0 19 4 37 9 40 20 13 30
101 32 270 l1 178 -26 25 c-27 24 -33 66 -17 107 7 17 11 14 31 -22 44 -79 47
-65 54 256 3 163 11 344 16 402 5 58 15 209 21 335 6 127 14 246 18 265 l7 34
34 -47 c18 -26 35 -46 36 -44 2 2 -10 45 -27 96 -16 52 -28 101 -27 110 6 29
65 -90 108 -219 23 -69 50 -141 60 -160 9 -19 20 -64 24 -99 4 -35 19 -89 33
-120 37 -82 64 -182 58 -212 -4 -16 5 -57 22 -105 26 -74 27 -91 31 -283 5
-286 -13 -395 -99 -577 -21 -45 -44 -97 -52 -116 -21 -49 -92 -134 -137 -164
-61 -40 -98 -44 -226 -25 -96 14 -117 15 -139 4 -16 -9 -23 -19 -18 -26 48
-81 109 -109 244 -113 52 -1 114 -7 138 -14 25 -7 47 -8 54 -2 7 5 57 45 113
90 55 45 104 82 108 82 11 0 39 34 82 100 20 30 54 73 74 95 27 28 42 57 52
100 9 33 31 112 51 176 20 63 43 171 52 239 15 108 16 145 6 273 -23 292 -78
534 -210 936 -45 134 -81 247 -81 251 0 4 93 10 208 13 119 4 230 12 262 20
76 19 187 67 303 131 l97 54 -6 -77 c-5 -67 -3 -84 21 -146 38 -101 84 -183
114 -205 15 -10 71 -33 126 -52 91 -30 111 -33 215 -33 104 1 121 3 174 28
131 61 298 213 345 315 16 34 30 52 42 52 20 0 39 -28 39 -57 0 -10 9 -29 20
-43 23 -29 23 -29 11 95 -5 50 -6 113 -2 140 l7 50 16 -52 c9 -28 20 -89 23
-135 9 -105 32 -171 86 -248 58 -83 100 -105 199 -104 99 0 167 27 257 103 39
33 104 99 144 148 41 48 79 89 84 91 5 2 17 -19 26 -47 66 -194 205 -326 339
-325 157 2 400 228 462 428 19 62 20 76 9 134 -14 78 -5 111 74 277 118 244
161 297 199 243 23 -32 21 -37 -24 -44 l-40 -7 6 -46 c7 -60 -8 -99 -45 -112
l-28 -10 5 -167 c5 -184 17 -236 70 -314 21 -30 51 -55 94 -79 56 -30 72 -34
139 -34 70 0 82 3 170 47 137 69 188 113 317 282 24 31 51 60 61 65 17 9 18 4
14 -87 -6 -117 16 -268 46 -315 11 -19 44 -46 73 -62 44 -24 68 -30 140 -33
61 -3 100 0 132 11 180 61 493 406 785 865 184 289 251 423 251 506 0 22 -27
97 -45 123 -1 2 -25 -9 -55 -23 -56 -27 -70 -23 -70 22 0 11 -13 33 -29 48
l-29 28 -75 -72 c-89 -84 -113 -133 -103 -205 8 -51 3 -55 -32 -22 l-24 22
-28 -32 c-25 -27 -124 -189 -225 -368 -16 -27 -48 -70 -71 -95 -40 -43 -70
-97 -60 -107 8 -9 139 153 198 245 33 50 62 92 64 92 7 0 -9 -66 -24 -95 -46
-92 -223 -337 -294 -407 -43 -42 -83 -90 -89 -107 -10 -29 -36 -41 -52 -25 -3
3 10 29 29 58 35 53 58 140 52 199 l-3 32 -23 -35 c-12 -19 -24 -51 -27 -70
-7 -46 -41 -113 -72 -142 l-25 -23 7 30 c20 82 72 230 122 344 171 389 270
638 293 734 37 153 25 322 -27 379 -41 46 -196 3 -270 -74 -48 -50 -135 -194
-228 -379 -102 -201 -144 -258 -219 -293 -30 -14 -62 -26 -70 -26 -18 0 -55
-49 -87 -115 -13 -27 -30 -54 -36 -58 -7 -4 -13 -17 -13 -29 0 -17 4 -19 25
-14 14 4 30 4 35 1 13 -8 -28 -108 -56 -132 -39 -35 -45 -28 -24 32 l19 55
-42 -29 c-71 -48 -147 -122 -147 -141 0 -23 20 -70 30 -70 4 0 33 23 64 50 31
28 59 50 62 50 3 0 -5 -19 -18 -42 -28 -52 -80 -88 -124 -88 -20 0 -42 -8 -53
-19 -20 -20 -54 -41 -67 -41 -15 0 7 76 52 173 26 56 71 165 101 242 85 218
134 311 169 319 19 5 22 11 17 39 -3 23 7 74 33 158 30 100 38 139 37 204 0
154 -41 268 -118 330 -70 57 -102 69 -191 69 -68 0 -89 -4 -137 -28 -99 -48
-205 -183 -345 -437 -44 -80 -102 -182 -129 -225 -80 -127 -137 -238 -208
-404 -90 -206 -124 -273 -181 -350 -58 -79 -84 -144 -84 -211 0 -59 -14 -62
-41 -8 -17 32 -17 39 -3 108 9 41 29 101 45 134 17 32 34 70 39 83 9 22 8 24
-10 14 -11 -6 -20 -16 -20 -22 0 -6 -3 -9 -6 -6 -7 8 25 110 75 240 52 137
136 376 162 463 11 39 48 122 81 185 52 100 58 118 47 135 -7 11 -14 38 -17
60 -2 22 -6 42 -8 44 -11 12 -62 -43 -90 -97 -17 -35 -56 -88 -86 -120 -31
-32 -59 -69 -63 -82 -15 -51 -38 -89 -55 -95 -26 -8 -78 -93 -205 -335 -59
-113 -112 -210 -116 -215 -4 -6 -19 -57 -32 -113 -15 -62 -32 -112 -45 -125
-11 -12 -29 -41 -41 -64 -11 -23 -55 -78 -96 -122 -41 -44 -75 -85 -75 -90 0
-21 -170 -188 -210 -206 -22 -10 -43 -16 -46 -13 -3 3 -5 70 -6 149 -1 148 6
192 54 339 22 67 230 527 295 650 36 69 36 71 25 134 -6 36 -8 74 -5 84 4 15
-2 21 -27 26 -18 3 -48 6 -67 6 -31 0 -36 4 -53 46 -16 37 -24 45 -38 39 -9
-4 -28 -10 -42 -12 -30 -6 -322 -301 -350 -354 -10 -20 -41 -62 -67 -95 -60
-73 -83 -108 -94 -146 -7 -26 -6 -28 8 -17 8 7 33 38 54 69 22 30 61 83 88
118 28 35 51 68 53 74 6 17 28 0 28 -21 0 -9 -13 -30 -30 -46 -16 -16 -30 -35
-30 -42 0 -8 -15 -20 -34 -28 -27 -11 -46 -35 -94 -117 -33 -57 -121 -206
-196 -331 -74 -125 -147 -260 -162 -300 -34 -92 -77 -148 -164 -213 -76 -58
-140 -78 -224 -72 -40 2 -53 8 -70 31 -19 26 -21 41 -21 180 1 138 3 159 28
233 27 81 49 115 61 95 4 -6 1 -19 -6 -30 -10 -17 -10 -23 1 -33 12 -11 13
-10 8 5 -4 11 -1 20 8 23 8 4 15 19 15 35 0 22 -4 27 -17 22 -12 -5 -10 2 8
26 19 27 25 30 28 15 4 -21 57 82 102 199 17 42 45 99 63 126 18 27 36 59 39
72 11 43 -38 -27 -92 -130 l-48 -93 -22 30 c-27 39 -27 46 13 117 29 54 172
282 215 345 35 49 43 71 32 83 -5 7 -11 32 -13 56 -2 25 -8 46 -15 48 -20 7
-83 -58 -141 -146 -31 -47 -87 -117 -124 -154 -72 -72 -90 -98 -107 -162 -6
-22 -17 -49 -24 -59 -13 -18 -15 -17 -55 3 -38 19 -45 20 -74 8 -18 -8 -41
-23 -50 -33 -27 -31 -157 -218 -154 -222 10 -10 59 27 88 67 29 41 33 44 36
23 2 -12 -13 -51 -33 -88 -28 -50 -49 -73 -90 -100 -30 -18 -57 -38 -60 -44
-10 -16 -236 -147 -337 -195 -115 -54 -231 -88 -377 -111 -139 -21 -167 -14
-247 59 -84 76 -92 93 -88 185 l4 77 -16 -52 c-9 -29 -20 -53 -24 -53 -4 0
-16 20 -27 45 l-19 45 33 67 c38 77 66 189 113 443 l33 175 219 550 c190 476
233 575 321 735 117 215 178 312 293 467 138 186 181 224 239 209 75 -19 72
-179 -9 -517 -59 -245 -153 -483 -278 -702 -86 -150 -154 -245 -300 -424 -165
-200 -335 -429 -326 -439 11 -10 36 9 49 38 13 26 17 28 27 15 11 -13 3 -26
-46 -81 -56 -64 -136 -185 -127 -194 9 -10 103 55 161 110 34 32 114 132 178
222 151 211 276 365 318 393 76 51 110 101 238 350 71 136 133 249 139 251 6
2 11 -9 11 -25 l0 -28 25 30 c53 63 104 187 134 322 34 151 100 357 136 422
34 59 33 108 -1 123 -21 10 -24 17 -19 37 20 85 18 106 -21 205 -50 126 -102
189 -177 211 -60 18 -106 18 -167 1z m130 -1196 c-25 -35 -30 -37 -30 -10 0
17 21 34 48 39 2 1 -6 -12 -18 -29z m-270 -448 c-20 -42 -33 -51 -45 -32 -6 9
54 84 62 77 1 -2 -6 -22 -17 -45z m-2280 -437 c0 -29 4 -45 13 -45 37 -1 39
-15 13 -114 -25 -94 -43 -136 -58 -136 -11 0 -30 80 -25 99 3 9 15 41 27 71
l22 55 -27 -25 c-58 -54 -68 -107 -35 -185 11 -26 20 -48 20 -49 0 -1 -16 -3
-34 -4 -51 -4 -59 19 -42 110 8 40 26 98 40 128 14 30 26 64 26 75 1 44 12 65
36 65 22 0 24 -4 24 -45z m314 -400 c-25 -19 -34 -19 -34 0 0 10 10 15 27 15
26 0 26 -1 7 -15z m6822 -12 c-27 -27 -41 -27 -30 0 5 14 20 22 48 26 5 0 -3
-11 -18 -26z m-6292 8 c3 -5 -8 -11 -26 -15 -34 -7 -44 -3 -33 13 8 13 52 15
59 2z m5276 -93 c0 -7 -5 -20 -10 -28 -8 -12 -10 -9 -10 13 0 15 5 27 10 27 6
0 10 -6 10 -12z m-6790 -118 c0 -16 -4 -30 -10 -30 -5 0 -10 14 -10 30 0 17 5
30 10 30 6 0 10 -13 10 -30z m-30 15 c0 -3 -47 -64 -105 -136 -156 -195 -219
-238 -375 -259 -130 -17 -140 -17 -140 -7 0 23 140 145 207 180 40 21 75 42
78 47 23 38 -146 -54 -212 -114 -58 -53 -102 -76 -145 -76 -10 0 -18 4 -18 10
0 18 125 142 182 182 77 52 269 144 338 162 53 14 190 22 190 11z m-570 -66
c-51 -43 -70 -53 -70 -36 0 17 34 48 68 63 40 17 41 6 2 -27z m1704 -105 c-13
-19 -19 -22 -25 -12 -6 8 -2 18 8 26 27 20 35 14 17 -14z m5341 -274 c-3 -5
-19 -19 -36 -31 l-31 -22 4 24 c1 13 8 27 13 31 15 11 57 10 50 -2z m780 -138
c-22 -5 -29 3 -21 25 7 17 8 17 22 -2 13 -18 13 -20 -1 -23z m-5688 -9 c-3 -3
-11 -2 -17 2 -8 5 -7 11 2 22 12 15 13 14 16 -1 2 -10 1 -20 -1 -23z m3889
-129 c-12 -32 -46 2 -46 47 0 21 1 21 26 -6 14 -15 23 -34 20 -41z m-3566
-237 c10 -37 8 -67 -9 -188 -29 -203 -53 -495 -49 -600 2 -49 1 -89 -2 -89 -3
0 -16 20 -29 44 -20 36 -23 51 -17 87 4 24 10 116 12 203 2 88 11 187 19 222
8 35 16 126 17 208 3 147 3 148 39 155 4 0 12 -18 19 -42z m-72 -962 c0 -25
-4 -43 -9 -39 -15 9 -10 84 6 84 1 0 2 -20 3 -45z m-8 -114 c0 -11 -4 -23 -10
-26 -6 -4 -10 5 -10 19 0 14 5 26 10 26 6 0 10 -9 10 -19z m-10 -181 c0 -16
-4 -30 -10 -30 -5 0 -10 14 -10 30 0 17 5 30 10 30 6 0 10 -13 10 -30z m-177
-560 c-7 -28 -13 -25 -13 6 0 14 4 23 9 20 5 -3 7 -15 4 -26z"/>
<path d="M3686 7047 c-28 -21 -16 -41 12 -22 22 16 30 35 14 35 -5 0 -16 -6
-26 -13z"/>
<path d="M4955 6878 c0 -190 -9 -240 -66 -369 -18 -43 -29 -82 -27 -102 3 -26
13 -9 67 113 l64 145 1 160 c1 115 -3 169 -13 193 -7 17 -16 32 -20 32 -3 0
-6 -78 -6 -172z"/>
<path d="M3620 6970 c-23 -7 -23 -8 -3 -9 12 -1 25 4 28 9 3 6 5 10 3 9 -2 -1
-14 -5 -28 -9z"/>
<path d="M2495 6903 c-24 -6 -45 -22 -45 -34 0 -5 16 -2 36 6 20 8 45 15 55
15 11 0 19 5 19 10 0 10 -29 12 -65 3z"/>
<path d="M3529 6878 c-30 -34 -91 -129 -86 -135 12 -11 76 61 95 107 23 55 21
61 -9 28z"/>
<path d="M7925 6850 c3 -5 13 -10 21 -10 8 0 14 5 14 10 0 6 -9 10 -21 10 -11
0 -17 -4 -14 -10z"/>
<path d="M2377 6826 c20 -27 28 -26 36 4 4 17 0 20 -24 20 -30 0 -30 0 -12
-24z"/>
<path d="M7862 6826 c-23 -30 -29 -56 -12 -56 15 0 42 47 38 67 -3 14 -7 13
-26 -11z"/>
<path d="M2303 6757 c-18 -8 -51 -68 -81 -147 -12 -32 36 22 73 81 40 65 42
82 8 66z"/>
<path d="M7791 6751 c-7 -5 -9 -11 -4 -14 4 -3 17 1 28 9 21 16 0 20 -24 5z"/>
<path d="M7957 6659 c-7 -76 5 -114 15 -49 9 64 9 110 -1 110 -4 0 -11 -28
-14 -61z"/>
<path d="M7743 6690 c-13 -6 -23 -18 -23 -30 0 -26 2 -26 28 10 13 17 21 30
20 29 -2 0 -13 -4 -25 -9z"/>
<path d="M3300 6530 c0 -11 4 -20 9 -20 5 0 7 9 4 20 -3 11 -7 20 -9 20 -2 0
-4 -9 -4 -20z"/>
<path d="M7924 6503 c-12 -55 -37 -127 -55 -157 -14 -25 -109 -241 -195 -446
l-15 -34 24 22 c25 24 44 63 133 267 77 179 111 272 119 328 8 50 -1 65 -11
20z"/>
<path d="M3070 6481 c0 -5 5 -13 10 -16 6 -3 10 -2 10 4 0 5 -4 13 -10 16 -5
3 -10 2 -10 -4z"/>
<path d="M3240 6424 c0 -14 3 -14 15 -4 8 7 15 14 15 16 0 2 -7 4 -15 4 -8 0
-15 -7 -15 -16z"/>
<path d="M3052 6402 c-18 -31 -13 -165 6 -153 9 5 12 31 10 92 -3 74 -4 81
-16 61z"/>
<path d="M4808 6300 c-14 -25 -31 -62 -37 -84 -10 -37 -9 -38 9 -21 23 21 62
111 58 133 -3 12 -12 3 -30 -28z"/>
<path d="M2050 6228 c0 -19 2 -20 10 -8 13 19 13 30 0 30 -5 0 -10 -10 -10
-22z"/>
<path d="M3130 6215 c-10 -13 -11 -18 -1 -28 10 -9 15 -8 27 7 8 11 14 23 14
28 0 14 -27 9 -40 -7z"/>
<path d="M4710 6139 c-16 -28 -4 -36 27 -19 36 21 41 40 9 40 -15 0 -30 -8
-36 -21z"/>
<path d="M2034 6094 c3 -9 6 -20 6 -25 0 -5 5 -9 10 -9 6 0 10 11 10 25 0 16
-6 25 -16 25 -11 0 -14 -5 -10 -16z"/>
<path d="M4702 6080 c0 -14 2 -19 5 -12 2 6 2 18 0 25 -3 6 -5 1 -5 -13z"/>
<path d="M7342 6028 c-15 -15 -16 -45 -1 -54 18 -10 42 21 34 45 -7 24 -16 26
-33 9z"/>
<path d="M4665 6009 c-4 -12 -3 -25 2 -30 6 -6 10 2 10 21 0 35 -3 38 -12 9z"/>
<path d="M4612 5928 c-16 -16 -15 -38 1 -38 17 0 37 20 37 37 0 16 -22 17 -38
1z"/>
<path d="M7306 5918 c-8 -13 -17 -34 -21 -48 l-6 -25 25 28 c14 15 26 37 26
48 0 25 -6 24 -24 -3z"/>
<path d="M4568 5837 c-26 -21 -54 -75 -44 -85 10 -9 76 66 76 87 0 26 1 26
-32 -2z"/>
<path d="M7618 5813 c-9 -10 -21 -29 -28 -43 -7 -14 -32 -50 -55 -80 -48 -62
-68 -108 -41 -93 9 5 35 34 58 63 60 80 117 211 66 153z"/>
<path d="M4487 5719 c-31 -24 -81 -103 -75 -120 5 -14 84 78 97 115 6 14 9 26
8 26 -1 0 -14 -10 -30 -21z"/>
<path d="M7216 5679 c-4 -28 -5 -53 -2 -56 8 -9 46 37 46 55 0 11 -8 27 -19
36 -18 16 -19 15 -25 -35z"/>
<path d="M12315 5650 c3 -5 14 -10 23 -10 15 0 15 2 2 10 -20 13 -33 13 -25 0z"/>
<path d="M12448 5633 c7 -3 16 -2 19 1 4 3 -2 6 -13 5 -11 0 -14 -3 -6 -6z"/>
<path d="M12215 5606 c-59 -28 -128 -96 -150 -148 -8 -21 -15 -41 -15 -45 0
-4 28 22 63 58 34 36 87 86 117 112 62 52 58 58 -15 23z"/>
<path d="M7838 5563 c-8 -10 -30 -43 -49 -73 -52 -84 -119 -160 -203 -230 -55
-47 -83 -79 -103 -120 -18 -36 -65 -93 -136 -164 -108 -111 -129 -144 -107
-171 20 -24 39 -18 94 33 64 57 309 362 395 491 87 129 168 303 109 234z"/>
<path d="M12528 5517 c6 -68 21 -97 22 -40 0 23 3 48 6 56 3 9 -2 20 -14 26
-18 9 -19 7 -14 -42z"/>
<path d="M10388 5472 c-38 -34 -94 -137 -105 -192 l-6 -35 69 64 c38 35 74 74
80 85 20 38 24 72 11 91 -13 16 -16 16 -49 -13z"/>
<path d="M7127 5459 c-42 -63 -197 -545 -197 -612 1 -27 2 -29 11 -14 6 10 22
60 35 110 14 50 43 131 65 179 22 49 37 93 34 97 -8 13 23 117 51 172 14 28
24 60 22 72 -3 21 -4 21 -21 -4z"/>
<path d="M12514 5367 c3 -16 6 -33 6 -38 0 -5 4 -9 9 -9 5 0 11 18 13 39 3 33
1 39 -15 38 -15 -1 -17 -7 -13 -30z"/>
<path d="M12001 5354 c-12 -15 -21 -30 -21 -35 0 -4 -3 -16 -7 -26 -4 -11 7
-6 30 16 21 19 37 43 37 53 0 26 -15 22 -39 -8z"/>
<path d="M4185 5329 c-20 -18 -43 -45 -51 -61 -15 -28 -14 -29 4 -19 11 6 33
28 49 48 56 72 55 82 -2 32z"/>
<path d="M11931 5244 c-12 -15 -21 -34 -21 -43 1 -21 50 33 50 55 0 20 -6 18
-29 -12z"/>
<path d="M8450 5204 c-50 -42 -198 -272 -205 -319 -6 -39 -6 -40 12 -19 10 11
39 48 65 82 45 58 49 61 81 55 34 -5 34 -5 41 40 5 34 15 53 37 71 24 21 29
32 29 70 0 55 -13 59 -60 20z"/>
<path d="M12491 5185 c1 -22 16 -48 22 -38 3 5 0 19 -8 29 -8 10 -14 15 -14 9z"/>
<path d="M10580 5155 c-22 -27 -5 -37 19 -11 19 20 21 26 9 26 -9 0 -21 -7
-28 -15z"/>
<path d="M11838 5102 c-20 -20 -39 -48 -43 -61 l-7 -24 31 22 c27 20 68 88 58
97 -2 2 -19 -13 -39 -34z"/>
<path d="M10541 5078 c-12 -19 -51 -123 -51 -136 0 -3 13 12 29 32 16 20 32
55 36 77 8 48 4 56 -14 27z"/>
<path d="M12440 4974 c-11 -25 -20 -57 -20 -71 0 -21 2 -23 15 -13 8 7 20 31
26 54 5 22 12 49 15 59 11 37 -18 15 -36 -29z"/>
<path d="M10468 4914 c-5 -4 -8 -16 -8 -28 0 -14 3 -17 11 -9 6 6 9 19 7 28
-1 9 -6 13 -10 9z"/>
<path d="M4576 4859 c-148 -31 -376 -154 -376 -201 0 -5 13 0 29 11 16 12 32
21 36 21 4 0 43 16 86 35 80 35 119 43 119 25 0 -5 16 0 35 11 21 13 66 25
112 30 41 4 90 13 108 19 28 9 31 14 27 40 -4 28 -7 30 -46 29 -22 -1 -81 -10
-130 -20z"/>
<path d="M10432 4840 c0 -14 2 -19 5 -12 2 6 2 18 0 25 -3 6 -5 1 -5 -13z"/>
<path d="M6460 4820 c-12 -8 -11 -10 8 -10 12 0 22 5 22 10 0 13 -11 13 -30 0z"/>
<path d="M12382 4761 c-25 -7 -62 -61 -62 -91 0 -26 9 -25 41 3 22 18 56 86
47 92 -2 1 -13 -1 -26 -4z"/>
<path d="M6882 4698 c-12 -34 -25 -88 -27 -118 -4 -47 -1 -39 25 55 34 126 35
157 2 63z"/>
<path d="M5041 4628 c-1 -37 -6 -90 -12 -117 -6 -28 -9 -61 -7 -73 3 -22 5
-21 26 12 21 32 22 42 16 120 -9 113 -23 147 -23 58z"/>
<path d="M8991 4646 l-23 -25 22 6 c12 3 24 12 27 20 9 24 -3 24 -26 -1z"/>
<path d="M10371 4642 c-6 -12 -11 -27 -11 -34 1 -7 8 0 16 15 9 16 13 31 11
34 -3 2 -10 -4 -16 -15z"/>
<path d="M8878 4488 c-34 -45 -87 -153 -60 -123 44 50 104 155 89 155 -3 0
-16 -15 -29 -32z"/>
<path d="M12221 4457 c-17 -22 -25 -74 -11 -82 8 -5 11 0 8 16 -2 16 4 27 17
34 24 13 33 45 12 45 -8 0 -20 -6 -26 -13z"/>
<path d="M6820 4436 c0 -14 3 -27 8 -29 4 -3 7 8 7 24 0 16 -3 29 -7 29 -5 0
-8 -11 -8 -24z"/>
<path d="M4997 4413 c-10 -9 -9 -53 1 -53 5 0 9 14 10 30 1 32 -1 34 -11 23z"/>
<path d="M7834 4404 c-18 -15 -17 -15 16 -10 43 8 64 26 29 26 -14 0 -34 -7
-45 -16z"/>
<path d="M7725 4304 c-44 -30 -76 -54 -72 -54 14 0 102 49 132 74 56 46 20 34
-60 -20z"/>
<path d="M10272 4336 c-12 -26 -7 -32 14 -18 6 4 8 15 5 25 -6 17 -8 16 -19
-7z"/>
<path d="M4982 4330 c0 -14 2 -19 5 -12 2 6 2 18 0 25 -3 6 -5 1 -5 -13z"/>
<path d="M8770 4315 c-19 -23 -8 -37 18 -20 12 9 22 20 22 26 0 14 -26 11 -40
-6z"/>
<path d="M8303 4234 c-3 -8 -2 -19 4 -25 5 -5 9 1 11 16 2 28 -6 33 -15 9z"/>
<path d="M8710 4215 c-6 -8 -10 -18 -8 -23 5 -15 48 6 48 23 0 19 -24 20 -40
0z"/>
<path d="M4900 4165 c0 -8 5 -15 10 -15 6 0 10 7 10 15 0 8 -4 15 -10 15 -5 0
-10 -7 -10 -15z"/>
<path d="M6948 4120 c31 -26 81 -40 170 -47 51 -4 72 -3 72 6 0 6 -15 11 -33
11 -18 0 -37 4 -43 10 -9 9 -51 18 -159 35 l-30 5 23 -20z"/>
<path d="M7337 4132 c-30 -3 -37 -7 -33 -18 3 -9 6 -17 6 -19 0 -3 46 19 69
33 10 5 -6 7 -42 4z"/>
<path d="M4835 4120 c4 -6 11 -8 16 -5 14 9 11 15 -7 15 -8 0 -12 -5 -9 -10z"/>
<path d="M8599 4018 c-99 -135 -99 -135 -59 -112 39 23 74 63 102 118 19 37
40 96 34 96 -1 0 -36 -46 -77 -102z"/>
<path d="M8274 4024 c3 -9 6 -31 6 -50 0 -25 4 -34 16 -34 12 0 15 6 10 23 -3
12 -6 34 -6 50 0 18 -5 27 -16 27 -11 0 -14 -5 -10 -16z"/>
<path d="M5653 4023 c-17 -6 -17 -43 0 -43 8 0 19 11 25 25 12 26 5 31 -25 18z"/>
<path d="M4678 3963 c-19 -23 -31 -43 -24 -43 2 0 14 14 26 30 23 33 22 40 -2
13z"/>
<path d="M5603 3927 c-30 -42 -59 -114 -50 -123 6 -7 50 66 72 120 22 53 14
54 -22 3z"/>
<path d="M4610 3890 c11 -20 30 -28 30 -12 0 11 -22 32 -32 32 -5 0 -4 -9 2
-20z"/>
<path d="M8265 3890 c3 -5 12 -10 20 -10 8 0 17 5 20 10 4 6 -5 10 -20 10 -15
0 -24 -4 -20 -10z"/>
<path d="M4490 3869 c-14 -5 -81 -14 -149 -21 -81 -9 -126 -18 -129 -26 -3 -9
19 -11 100 -7 154 9 180 13 223 40 l40 24 -30 0 c-16 0 -41 -5 -55 -10z"/>
<path d="M4090 3840 c25 -20 84 -27 94 -11 6 9 -60 31 -95 31 l-24 0 25 -20z"/>
<path d="M3793 3773 c-7 -15 -13 -38 -13 -52 0 -25 0 -25 19 -6 25 26 38 85
19 85 -7 0 -19 -12 -25 -27z"/>
<path d="M5534 3749 c-1 -15 3 -26 7 -23 11 6 12 41 2 47 -5 3 -8 -8 -9 -24z"/>
<path d="M9838 3768 c-19 -14 -35 -68 -21 -68 23 0 45 27 41 54 -3 24 -5 25
-20 14z"/>
<path d="M5476 3666 c-14 -29 -28 -73 -31 -97 l-6 -44 20 23 c11 12 27 48 36
80 9 31 18 65 21 75 12 39 -16 13 -40 -37z"/>
<path d="M9788 3683 c7 -3 16 -2 19 1 4 3 -2 6 -13 5 -11 0 -14 -3 -6 -6z"/>
<path d="M3744 3666 c-3 -8 -1 -22 4 -31 7 -14 9 -11 10 14 1 33 -5 40 -14 17z"/>
<path d="M9720 3635 c0 -8 4 -15 9 -15 5 0 11 7 15 15 3 9 0 15 -9 15 -8 0
-15 -7 -15 -15z"/>
<path d="M9100 3627 c-35 -18 -35 -33 1 -46 18 -6 34 -11 35 -11 8 0 4 59 -4
64 -4 3 -19 -1 -32 -7z"/>
<path d="M4585 3618 c-25 -13 -155 -140 -155 -150 0 -15 74 29 111 65 43 41
84 97 72 97 -4 0 -17 -6 -28 -12z"/>
<path d="M9209 3536 c13 -16 51 -41 51 -33 0 2 -15 14 -32 27 -21 15 -28 17
-19 6z"/>
<path d="M5417 3513 c-10 -9 -9 -51 1 -57 5 -3 8 11 8 29 -1 19 -1 35 -2 35 0
0 -4 -3 -7 -7z"/>
<path d="M9266 3478 c3 -4 14 -8 24 -8 10 0 21 4 24 8 3 5 -8 9 -24 9 -16 0
-27 -4 -24 -9z"/>
<path d="M4323 3392 c-84 -55 -98 -67 -60 -53 51 19 82 39 111 70 17 17 28 31
25 30 -2 0 -36 -22 -76 -47z"/>
<path d="M5390 3346 c0 -77 -2 -85 -21 -91 -17 -6 -19 -12 -13 -38 3 -18 12
-39 19 -47 7 -8 20 -28 28 -45 l16 -30 1 61 c0 106 -13 274 -22 274 -4 0 -8
-38 -8 -84z"/>
<path d="M6184 3377 c-18 -19 -44 -69 -44 -82 0 -3 13 -5 29 -5 27 0 29 3 34
53 2 28 4 53 3 54 -2 2 -11 -7 -22 -20z"/>
<path d="M6822 3353 c5 -27 27 -102 48 -168 43 -135 46 -149 60 -255 10 -85
60 -211 60 -154 0 59 -31 196 -85 376 -30 98 -57 194 -61 213 -3 19 -12 35
-19 35 -10 0 -10 -11 -3 -47z"/>
<path d="M3810 3354 c0 -18 26 -47 39 -43 8 3 3 13 -13 28 -14 14 -26 20 -26
15z"/>
<path d="M4065 3288 c-55 -10 -104 -23 -109 -28 -4 -4 3 -15 16 -24 24 -15 30
-14 121 20 53 20 94 40 91 45 -6 11 4 12 -119 -13z"/>
<path d="M3900 3281 c0 -12 5 -21 10 -21 6 0 10 6 10 14 0 8 -4 18 -10 21 -5
3 -10 -3 -10 -14z"/>
<path d="M6090 3249 c0 -5 11 -9 25 -9 33 0 33 15 0 16 -14 1 -25 -2 -25 -7z"/>
<path d="M6047 3212 c-21 -23 -22 -43 -2 -36 14 6 31 42 23 50 -3 2 -12 -4
-21 -14z"/>
<path d="M5486 2981 c-15 -17 -16 -19 -1 -25 27 -10 35 -7 35 13 0 28 -15 33
-34 12z"/>
<path d="M5662 2953 c-36 -4 -42 -7 -31 -19 17 -21 66 -18 79 6 6 11 7 19 3
18 -4 -1 -27 -3 -51 -5z"/>
<path d="M6972 2669 c2 -7 10 -15 17 -17 8 -3 12 1 9 9 -2 7 -10 15 -17 17 -8
3 -12 -1 -9 -9z"/>
<path d="M7000 2601 c0 -6 5 -13 10 -16 6 -3 10 -19 10 -36 0 -16 5 -29 10
-29 11 0 14 49 4 74 -7 17 -34 22 -34 7z"/>
<path d="M2066 2508 c-3 -18 -10 -76 -16 -128 -5 -52 -13 -106 -16 -119 -6
-21 -5 -23 17 -16 13 4 25 8 25 9 1 0 4 65 8 144 5 92 3 142 -3 142 -6 0 -13
-15 -15 -32z"/>
<path d="M8664 2426 c-42 -19 -64 -52 -64 -100 0 -40 27 -74 115 -146 42 -35
75 -79 75 -102 0 -28 -54 -78 -84 -78 -16 0 -42 14 -66 36 -28 25 -43 33 -54
27 -13 -7 -13 -12 4 -38 92 -141 308 -21 220 122 -10 18 -49 55 -85 84 -85 67
-102 102 -65 139 28 28 72 25 102 -5 16 -16 32 -23 42 -19 25 10 19 31 -16 57
-43 32 -85 40 -124 23z"/>
<path d="M9711 2429 c-124 -24 -204 -147 -180 -274 27 -147 157 -223 313 -184
43 11 116 61 116 80 0 20 -32 21 -53 1 -32 -30 -90 -52 -137 -52 -176 0 -267
212 -143 332 46 45 79 58 143 58 59 0 97 -13 131 -46 16 -15 32 -22 42 -18 36
14 10 47 -68 86 -41 21 -111 28 -164 17z"/>
<path d="M10662 2430 c-44 -10 -90 -55 -102 -99 -13 -48 -13 -51 9 -51 13 0
23 11 31 34 12 38 45 71 79 79 31 8 84 -15 105 -44 38 -55 15 -100 -131 -257
-57 -61 -103 -113 -103 -116 0 -3 68 -6 150 -6 142 0 150 1 150 20 0 18 -8 20
-106 22 l-105 3 85 93 c46 52 92 109 100 127 53 111 -41 224 -162 195z"/>
<path d="M11006 2430 c-76 -23 -110 -95 -110 -235 0 -84 4 -108 22 -147 55
-112 186 -118 249 -10 21 35 27 62 31 124 9 148 -33 245 -116 268 -42 11 -37
11 -76 0z m107 -68 c31 -34 47 -89 47 -167 0 -80 -16 -132 -50 -167 -52 -52
-135 -26 -161 50 -7 20 -13 78 -13 128 0 105 18 148 72 175 40 21 73 14 105
-19z"/>
<path d="M8930 2195 c0 -218 1 -225 20 -225 19 0 20 7 20 225 0 218 -1 225
-20 225 -19 0 -20 -7 -20 -225z"/>
<path d="M9080 2195 c0 -217 1 -225 20 -225 19 0 20 8 22 172 l3 171 149 -171
c82 -95 150 -172 152 -172 2 0 4 101 4 225 0 217 -1 225 -20 225 -19 0 -20 -8
-22 -171 l-3 -171 -148 171 c-82 94 -151 171 -153 171 -2 0 -4 -101 -4 -225z"/>
<path d="M10060 2195 l0 -225 130 0 c123 0 130 1 130 20 0 18 -8 20 -107 22
l-108 3 0 90 0 90 108 3 c99 2 107 4 107 22 0 19 -7 20 -110 20 l-110 0 0 70
0 70 110 0 c103 0 110 1 110 20 0 19 -7 20 -130 20 l-130 0 0 -225z"/>
<path d="M11332 2408 c-20 -20 -14 -28 23 -28 l35 0 0 -205 c0 -198 1 -205 20
-205 19 0 20 7 20 225 l0 225 -43 0 c-24 0 -48 -5 -55 -12z"/>
<path d="M11620 2400 c0 -19 7 -20 110 -20 l110 0 -44 -82 c-164 -310 -167
-317 -148 -327 16 -8 32 18 135 215 64 123 117 226 117 229 0 3 -63 5 -140 5
-133 0 -140 -1 -140 -20z"/>
<path d="M7008 2243 c-18 -20 -25 -93 -9 -93 19 0 32 31 29 70 -3 41 -3 42
-20 23z"/>
<path d="M6981 2064 c0 -11 3 -14 6 -6 3 7 2 16 -1 19 -3 4 -6 -2 -5 -13z"/>
<path d="M6923 1934 c-3 -8 -2 -19 3 -24 5 -5 10 1 10 16 2 27 -4 31 -13 8z"/>
<path d="M6805 1770 c-60 -61 -104 -110 -99 -110 21 0 113 61 142 94 32 37 77
115 70 122 -2 2 -53 -46 -113 -106z"/>
<path d="M6397 1453 c-25 -24 7 -63 83 -104 40 -21 58 -24 155 -24 84 0 122 5
160 19 89 33 160 101 75 71 -40 -14 -69 -16 -240 -12 -84 2 -102 6 -142 30
-46 26 -78 34 -91 20z"/>
</g>
</svg>
